<?xml version="1.0" encoding="UTF-8"?>
<!DOCTYPE svg PUBLIC "-//W3C//DTD SVG 1.1//EN" "http://www.w3.org/Graphics/SVG/1.1/DTD/svg11.dtd">
<!-- Creator: CorelDRAW 2020 (64-Bit) -->
<svg xmlns="http://www.w3.org/2000/svg" xml:space="preserve" width="100%" height="100%" version="1.1" style="shape-rendering:geometricPrecision; text-rendering:geometricPrecision; image-rendering:optimizeQuality; fill-rule:evenodd; clip-rule:evenodd"
viewBox="0 0 1594.19 1119.14"
 xmlns:xlink="http://www.w3.org/1999/xlink"
 xmlns:xodm="http://www.corel.com/coreldraw/odm/2003">
 <defs>
  <style type="text/css">
   <![CDATA[
    .fil0 {fill:#1E4466}
    .fil1 {fill:#80A1CF}
    .fil2 {fill:#ADC1E0}
    .fil3 {fill:#FDFDFD}
   ]]>
  </style>
 </defs>
 <g id="Layer_x0020_1">
  <metadata id="CorelCorpID_0Corel-Layer"/>
  <g id="_2877224617520">
   <g>
    <path class="fil0" d="M0.48 686.41l0 59.78c0,122.85 168.03,247.11 203.33,247.11 12.24,0 40.01,-20.71 47.07,-28.71 23.06,-25.42 -3.3,-28.24 32.48,-47.07 27.3,51.78 62.13,96.96 106.84,132.26 89.43,70.6 98.84,7.53 121.91,-14.59 2.82,-2.82 15.53,-11.77 18.36,-13.65 0,28.71 -4.71,58.37 8.94,74.84 16,19.3 24.94,27.3 53.66,20.24 39.07,-9.41 79.54,-35.77 107.79,-64.01 21.65,-21.65 141.2,-159.09 144.5,-198.16 91.78,-21.18 213.22,-46.13 307.82,-13.18 34.36,12.24 47.54,17.41 55.54,43.77 37.19,120.96 270.17,88.49 270.17,-39.07 0,-13.65 -12.71,-33.42 -18.83,-45.19 -24.48,-48.48 -13.65,-77.19 -31.54,-103.55 -16,-23.54 -30.59,0 -33.42,-34.36l-8 0c-1.88,24.94 -9.89,15.06 -28.24,12.71 -15.53,-1.88 -127.08,-4.24 -127.08,-24.94 0,-20.71 22.59,-44.24 33.42,-57.89 16.47,-21.18 31.54,-28.71 65.89,-29.65 3.3,12.71 14.12,29.18 24,35.77l0 -43.77c40.48,0 160.97,-33.42 200.51,-74.37 16.47,-16.94 38.59,-105.43 38.59,-128.5 0,-19.77 -8,-27.77 -8,-48.01 0,-43.77 41.89,-79.07 -68.72,-126.61 -72.96,-31.06 -130.38,-54.6 -207.1,-72.02 -119.08,-27.3 -67.31,-72.02 -224.04,-95.08 -98.84,-14.59 -297.94,-22.12 -377.48,33.89 -65.89,46.13 -89.9,39.54 -160.03,74.84 -54.13,27.3 -132.26,64.95 -183.57,95.55 -40.01,24 -85.19,42.36 -126.14,73.43 -92.72,70.6 -239.11,274.88 -239.11,398.67l0.48 -0.47z"/>
    <path class="fil0" d="M212.28 965.05c30.12,-30.59 12.24,-19.3 10.35,-75.31 8.94,6.59 12.24,12.71 24,18.83l16.94 -14.12c0.47,-18.83 -4.24,-43.3 3.76,-59.78 15.06,17.89 32.95,71.07 76.72,129.91 19.77,26.36 73.43,81.43 118.61,88.96l15.53 -16c-0.94,-39.07 -39.07,-56.01 -32.95,-174.62 19.77,50.36 27.3,118.61 61.19,145.44 46.6,-17.89 1.41,-76.25 32.01,-126.61 20.24,26.83 22.59,99.31 22.59,139.32 0,41.42 -11.77,39.54 13.18,67.31 89.43,-2.82 208.98,-170.86 246.64,-247.11 8,-16.47 9.41,-14.59 28.24,-19.3 107.79,-27.3 278.17,-51.78 369.95,19.77 24.94,19.3 8.94,83.78 108.26,89.9 55.54,3.3 118.14,-39.07 121.91,-74.84 1.41,-16.47 -19.77,-48.48 -27.3,-70.6 -7.06,-21.65 -13.65,-58.37 -16.94,-83.31 21.18,12.24 16,44.24 25.42,74.84 7.06,22.12 28.24,55.54 29.65,69.19 6.59,57.89 -103.08,127.56 -191.09,80.48 -72.48,-38.59 -2.82,-61.19 -102.14,-100.72 -92.72,-37.19 -215.1,-17.41 -308.76,5.18 -38.13,9.41 -16.47,7.53 -69.66,85.67 -21.18,31.06 -65.43,88.49 -89.9,112.96 -24,23.54 -78.13,70.13 -132.73,70.13 -31.06,-54.13 -15.06,-10.83 -15.53,-83.31 -0.47,-36.71 -4.71,-63.54 -9.89,-97.43 -5.18,24 -1.41,40.95 -0.47,64.01 0.94,18.36 -13.65,24.94 -24.94,37.65 -20.24,-3.76 -38.13,-21.65 -41.89,-38.13 8.47,46.13 38.59,40.48 -6.59,83.78 -112.49,-24 -160.97,-159.09 -187.8,-193.92 -0.47,-0.94 -1.88,-1.88 -2.35,-2.82 -0.47,-0.94 -1.41,-1.88 -2.35,-2.82l2.82 31.54c-9.41,5.65 -12.24,8.47 -21.18,15.06 -16.94,12.71 -9.41,2.35 -18.36,7.53 2.82,16 8.47,24 0.94,34.36 -5.65,8.47 -21.65,18.83 -30.59,21.65 -57.42,-26.36 -112.49,-72.02 -142.15,-112.96 -39.07,-53.66 -58.83,-120.49 -44.71,-202.39 12.24,-69.66 43.77,-128.96 75.31,-179.8 41.89,-67.78 117.67,-156.74 185.45,-200.98 41.89,-27.3 287.59,-153.44 337.48,-172.74 147.32,-55.54 118.61,-91.78 302.65,-91.78 52.24,0 111.55,5.65 163.33,12.24 71.54,8.94 77.66,14.59 126.61,48.48 53.19,36.71 49.89,35.3 124.26,51.3 43.3,9.41 88.02,29.65 128.96,46.13 37.19,14.59 100.72,31.54 110.14,65.89 7.06,24.94 -9.89,48.01 -3.76,82.37 6.12,32.95 5.18,43.77 -4.24,75.78 -18.83,64.01 -11.3,75.31 -73.9,101.2 -23.06,9.41 -117.67,40.95 -137.44,34.36 4.71,-11.3 -5.65,-4.24 13.18,-10.83 26.36,-9.41 96.02,-17.41 143.09,-44.71 30.59,-17.89 28.24,-26.36 39.07,-64.95 12.24,-42.36 17.41,-45.19 8.94,-92.25 -11.77,-64.95 51.3,-79.07 -69.19,-125.2 -47.54,-18.36 -105.43,-44.71 -154.38,-56.95 -24.48,-6.12 -61.66,-9.41 -82.84,-20.71 -20.71,-11.3 -45.19,-30.12 -64.01,-43.3 -50.83,-34.83 -99.31,-37.19 -168.03,-42.36 -64.48,-5.18 -137.44,-8 -200.04,1.88 -80.96,12.71 -87.07,36.71 -146.85,64.48 -49.42,23.06 -81.9,30.12 -147.32,64.01 -70.6,36.24 -216.04,107.79 -271.58,151.09 -31.06,24 -77.19,76.25 -102.61,108.73 -51.3,65.43 -128.02,179.8 -124.26,299.35 2.35,68.25 27.3,112.49 59.78,152.03 17.89,21.65 85.67,81.43 125.2,90.84l-1.41 -0.93z"/>
    <path class="fil0" d="M1487.82 212.43c16.94,2.35 64.01,21.18 64.01,47.07l-9.41 28.71c-5.18,-11.3 -8,-31.54 -51.78,-26.83l-11.3 18.36c-56.95,0 -8,-9.41 -69.66,8 -34.36,9.41 -117.67,14.12 -153.91,11.3 -11.3,-0.94 -22.12,-2.35 -33.42,-5.65 -48.95,-14.59 -4.24,-32.48 -118.14,55.54 -51.78,40.01 -96.02,112.96 -138.38,172.27 -18.36,25.89 -43.77,63.07 -60.72,95.08 -8.47,16.47 -16.94,39.07 -26.36,49.42 -13.65,14.59 -24.94,29.65 -49.42,32.01 -36.24,3.76 -112.49,-8 -127.56,-30.12 -4.24,-6.12 -5.18,-17.41 -9.89,-26.36 -14.12,-29.18 -77.19,-74.84 -104.96,-94.14l-36.24 -24c-9.89,-3.3 11.3,-0.47 -5.18,-0.94 -40.01,-1.41 32.95,277.7 126.61,306.41 45.19,14.12 79.54,-2.35 125.67,24.94 -2.35,15.53 -31.54,55.54 -40.48,68.25 -9.41,13.65 -15.06,20.24 -24.48,31.54 -32.48,39.54 -92.72,116.26 -153.44,123.32 -0.47,-68.72 -2.82,-196.74 -40.95,-248.52 -23.06,31.54 -29.18,113.43 -34.36,159.09 -27.3,-43.3 -40.01,-117.2 -45.19,-172.27 -1.41,-12.71 -0.94,-20.71 -8.94,-30.12 -13.65,48.48 -28.24,59.78 -25.42,125.2 1.88,47.54 11.77,85.67 24.94,126.61 -116.26,-48.01 -176.04,-250.87 -190.15,-267.81 -12.24,25.42 -14.12,92.72 -14.12,124.26 -23.54,-18.83 -25.42,-52.72 -36.71,-78.13 -9.41,51.78 -0.47,86.13 -3.76,134.61 -26.83,-10.83 -69.66,-40.48 -83.78,-59.78 -91.78,-59.31 -99.31,-229.69 -54.6,-297 8,18.83 15.53,27.3 22.12,41.89 22.59,48.48 27.77,100.72 28.71,154.38 24.94,-20.71 46.13,-80.48 42.36,-125.67 -4.24,-50.83 -32.95,-73.43 -50.36,-117.67 -13.18,-34.83 -2.82,-36.24 14.12,-61.66 20.24,-30.59 86.61,-117.2 114.37,-136.03 -24,58.83 -25.42,93.67 -14.12,162.85 11.77,70.13 -4.24,114.37 -7.06,178.86 12.71,-0.94 14.12,-7.53 22.59,-17.89 89.9,-114.85 39.07,-152.5 45.66,-235.34 4.71,-65.43 23.06,-143.56 81.9,-175.09 16,-8.47 39.07,-23.54 54.6,-27.3 -69.19,152.5 -30.59,231.1 -43.3,297 -6.59,32.48 -14.59,61.19 -22.59,91.31 39.07,-21.65 94.61,-80.48 88.49,-150.62 -6.59,-71.54 -21.18,-112.49 16.94,-204.74 35.3,-85.19 38.59,-77.19 122.85,-116.26 27.77,-12.71 58.37,-21.18 85.19,-34.36 53.66,-25.89 47.54,-29.18 72.96,-42.36 94.61,-50.36 361.48,-31.54 413.26,-3.76 27.77,15.06 46.6,32.48 71.07,48.48 51.3,32.95 200.51,49.89 261.23,94.14l0.46 -0.48z"/>
    <path class="fil0" d="M1191.3 295.74c20.24,-0.94 55.07,13.18 88.49,13.65 59.31,0.94 160.97,-20.24 180.74,-15.06 56.48,16 17.89,-16 82.37,2.35 8.47,56.48 10.35,62.13 -5.18,117.67 -11.77,40.95 -20.71,63.07 -71.54,67.31 -96.02,8 -82.84,-13.65 -126.14,-11.77 -75.78,3.3 -72.48,32.95 -119.08,93.67 -27.77,36.24 -87.55,95.08 -50.83,129.44 24.94,23.06 118.14,42.83 160.97,47.07 21.65,2.35 44.24,-1.41 65.43,2.35 11.77,22.12 15.53,56.95 31.54,86.61 32.48,59.78 -68.72,105.9 -131.79,83.78 -56.48,-19.77 -46.6,-49.89 -48.95,-66.83 -56.01,-27.77 -68.25,-62.13 -198.63,-63.07 -140.26,-0.94 -164.27,24 -228.75,29.65 -13.65,0.94 -35.77,-9.89 -50.83,-13.65 -18.83,-4.71 -36.71,-5.18 -55.07,-8.94 -79.54,-15.53 -82.37,-78.13 -109.2,-149.68 -12.24,-32.48 -32.95,-65.43 -40.95,-91.31 31.06,7.53 75.31,46.6 94.14,65.43 33.89,33.89 19.3,16.94 32.01,47.54 16,38.13 130.85,58.83 168.97,63.07 33.89,3.76 52.72,-52.24 68.72,-79.07 20.24,-33.42 42.83,-61.19 64.95,-90.84 21.65,-29.18 43.3,-56.01 66.37,-85.19 29.18,-36.71 24.94,-36.71 56.95,-62.6 22.12,-17.89 64.95,-89.9 75.31,-112.02l0 0.47z"/>
    <path class="fil0" d="M1345.68 493.43l-4.24 59.78c-7.06,-4.71 -26.36,-42.36 -26.36,-53.66 0,-8 1.41,-6.59 3.3,-11.77l27.77 6.12 -0.47 -0.47z"/>
    <path class="fil0" d="M1375.8 698.65c-7.06,11.3 -5.18,8 -23.54,6.59 -82.37,-6.12 -227.81,-12.71 -106.84,-132.26 22.59,-22.12 20.71,-32.48 57.42,-35.77 16.47,-1.41 8.47,-3.3 16,6.12 -13.65,8.47 -27.77,3.3 -41.89,12.71 -7.53,5.18 -20.24,21.18 -26.83,28.71 -113.91,132.73 69.19,87.55 126.14,113.43l-0.47 0.47z"/>
    <path class="fil1" d="M607.18 193.13c50.36,-10.35 106.37,18.36 168.03,3.76 8.47,-1.88 64.48,-18.83 67.78,-19.3 24.48,-0.94 8.47,44.71 1.88,57.42 -48.48,89.9 -228.28,-6.12 -237.69,-41.89l0 0zm-57.89 -18.35c53.66,-8.47 116.26,-11.3 173.21,-20.71 33.42,-5.18 139.79,-25.89 163.8,-22.59 -9.89,41.42 -89.9,50.36 -132.73,56.95 -44.24,7.06 -143.09,-12.71 -170.86,0 2.35,16.47 24.48,28.24 40.48,38.59 103.08,67.78 169.44,51.3 144.5,79.07 -30.12,32.95 -228.75,-30.12 -218.39,-131.32zm658.48 17.89c-27.77,14.12 -90.37,14.12 -118.61,-1.41 -20.71,-11.3 -6.59,-8.94 -12.71,-21.65l-64.48 -0.94c-6.59,-11.3 -39.54,-48.01 -7.06,-56.95 18.83,-5.18 66.37,7.53 83.31,12.71 23.54,7.53 49.89,16.47 70.13,25.89 22.59,10.35 45.66,20.24 49.89,41.89l-0.47 0.47zm-1086.33 696.13c11.3,-32.01 194.86,-198.63 248.05,-247.58 106.37,-97.9 264.99,-202.39 400.55,-269.23l99.31 -44.71c20.24,-6.59 8.94,-3.76 13.65,0.47 31.06,-12.24 66.83,-44.24 97.9,-52.24 7.06,4.71 7.53,-10.35 4.24,12.71 71.54,-26.36 168.03,-43.77 243.34,-55.54 91.78,-13.65 179.33,-12.71 259.34,-20.24 -60.72,-44.24 -209.92,-61.19 -261.23,-94.14 -24.48,-15.53 -43.3,-32.95 -71.07,-48.48 -51.78,-28.24 -318.65,-47.07 -413.26,3.76 -25.42,13.65 -19.3,16.47 -72.96,42.36 -26.83,12.71 -57.42,21.65 -85.19,34.36 -84.25,39.07 -87.55,31.06 -122.85,116.26 -38.59,92.25 -23.54,133.2 -16.94,204.74 6.12,70.6 -49.42,129.44 -88.49,150.62 8,-30.59 16.47,-58.83 22.59,-91.31 13.18,-65.89 -25.89,-144.5 43.3,-297 -15.53,3.76 -38.59,18.83 -54.6,27.3 -58.83,31.06 -77.19,109.67 -81.9,175.09 -6.12,82.84 44.71,120.49 -45.66,235.34 -8,10.35 -9.89,16.94 -22.59,17.89 2.82,-64.48 18.36,-108.73 7.06,-178.86 -11.3,-69.19 -9.89,-104.49 14.12,-162.85 -28.24,18.83 -94.61,105.43 -114.37,136.03 -16.94,25.89 -27.3,27.3 -14.12,61.66 16.94,44.24 46.13,66.37 50.36,117.67 3.76,45.19 -17.89,104.96 -42.36,125.67 -0.94,-54.13 -6.12,-105.9 -28.71,-154.38 -6.59,-14.12 -14.12,-22.59 -22.12,-41.89 -44.71,66.83 -37.19,237.69 54.6,297l0 -0.47z"/>
    <path class="fil2" d="M781.33 643.1c6.59,-22.12 18.36,-36.71 32.01,-51.78 67.31,-72.96 39.07,-82.37 96.96,-150.15 41.89,-49.42 76.72,-79.07 128.02,-119.08 11.77,-9.41 32.48,-30.12 48.48,-29.65 -9.89,50.83 -98.37,148.26 -141.2,187.33 -68.25,61.66 -103.08,151.09 -163.8,163.33l-0.47 0zm203.33 -355.36l-39.54 36.24c-29.18,28.24 -109.67,92.72 -155.32,75.31 2.35,-26.83 74.37,-50.36 93.19,-72.02 -4.71,-4.24 7.06,-7.06 -13.65,-0.47l-99.31 44.71c-135.56,66.83 -294.17,171.33 -400.55,269.23 -52.72,48.95 -236.75,215.57 -248.05,247.58 13.65,19.77 56.95,49.42 83.78,59.78 3.3,-48.01 -5.65,-82.84 3.76,-134.61 11.3,25.42 13.18,58.83 36.71,78.13 0,-31.54 1.88,-98.84 14.12,-124.26 14.12,16.94 73.43,219.81 190.15,267.81 -13.18,-40.48 -23.06,-79.07 -24.94,-126.61 -2.82,-65.43 11.77,-76.72 25.42,-125.2 8,9.41 8,17.41 8.94,30.12 5.18,55.07 17.89,128.96 45.19,172.27 5.18,-45.66 11.3,-127.56 34.36,-159.09 37.65,51.78 40.48,180.27 40.95,248.52 61.19,-7.06 121.44,-83.78 153.44,-123.32 9.41,-11.3 14.59,-17.89 24.48,-31.54 8.94,-12.71 38.13,-52.24 40.48,-68.25 -46.13,-27.3 -80.48,-11.3 -125.67,-24.94 -93.67,-28.71 -166.15,-307.82 -126.61,-306.41 16.47,0.47 -4.71,-2.35 5.18,0.94l36.24 24c27.77,19.3 90.84,64.48 104.96,94.14 4.24,8.94 5.65,20.24 9.89,26.36 15.06,22.12 91.31,33.89 127.56,30.12 24.48,-2.82 35.77,-17.41 49.42,-32.01 9.41,-10.35 17.89,-32.95 26.36,-49.42 16.47,-32.01 42.36,-69.19 60.72,-95.08 42.83,-59.31 86.61,-132.73 138.38,-172.27 113.91,-87.55 69.19,-70.13 118.14,-55.54 11.3,3.3 21.65,4.71 33.42,5.65 36.24,3.3 119.55,-1.41 153.91,-11.3 61.66,-16.94 12.71,-8 69.66,-8l11.3 -18.36c43.77,-4.71 47.07,16 51.78,26.83l9.41 -28.71c0,-25.89 -47.07,-44.24 -64.01,-47.07 -80.02,7.53 -167.56,6.59 -259.34,20.24 -75.78,11.3 -171.8,28.71 -243.34,55.54l-0.94 0.95z"/>
    <path class="fil3" d="M1048.21 708.53c-6.12,-12.71 -1.88,-22.12 4.24,-37.65 4.24,-11.77 8.94,-23.54 13.65,-34.36 9.89,-22.59 19.3,-50.36 34.83,-57.89 3.3,50.36 -19.77,112.96 -52.24,129.91l-0.47 -0zm-97.9 20.71c3.76,-19.3 30.59,-62.6 40.48,-79.54 11.3,-19.3 32.01,-61.19 49.89,-71.07 -1.41,25.89 -22.59,70.6 -33.42,91.31 -9.41,18.36 -40.48,59.31 -56.95,59.31l-0 -0zm240.52 -433.49c-10.35,21.65 -53.19,94.14 -75.31,112.02 -32.01,25.89 -27.77,25.89 -56.95,62.6 -23.06,29.18 -44.71,56.01 -66.37,85.19 -22.12,29.65 -44.24,56.95 -64.95,90.84 -16.47,26.83 -34.83,82.37 -68.72,79.07 -38.59,-4.24 -152.97,-24.94 -168.97,-63.07 -13.18,-30.12 1.88,-13.65 -32.01,-47.54 -19.3,-18.83 -63.07,-57.89 -94.14,-65.43 7.53,25.89 28.71,58.83 40.95,91.31 26.83,71.54 30.12,134.14 109.2,149.68 18.36,3.76 35.77,4.24 55.07,8.94 15.06,3.76 37.19,14.59 50.83,13.65 64.48,-5.18 88.49,-30.59 228.75,-29.65 130.38,0.94 142.61,35.3 198.63,63.07 2.35,16.94 -7.53,47.54 48.95,66.83 63.07,21.65 164.27,-24.48 131.79,-83.78 -16.47,-29.65 -19.77,-64.48 -31.54,-86.61 -21.65,-3.76 -43.77,-0.47 -65.43,-2.35 -42.83,-4.24 -136.03,-24 -160.97,-47.07 -36.71,-34.36 22.59,-93.19 50.83,-129.44 46.6,-60.25 43.3,-90.37 119.08,-93.67 43.77,-1.88 30.59,19.77 126.14,11.77 50.83,-4.24 59.78,-26.36 71.54,-67.31 16,-55.07 14.12,-61.19 5.18,-117.67 -64.48,-18.83 -25.89,13.65 -82.37,-2.35 -19.77,-5.65 -121.44,15.53 -180.74,15.06 -33.42,-0.47 -67.78,-14.12 -88.49,-13.65l0 -0.47z"/>
    <path class="fil3" d="M212.28 965.05c-39.07,-9.41 -107.31,-69.19 -125.2,-90.84 -32.48,-39.54 -57.89,-83.31 -59.78,-152.03 -3.76,-119.08 72.96,-233.93 124.26,-299.35 25.42,-32.48 71.54,-84.72 102.61,-108.73 55.54,-42.83 200.98,-114.37 271.58,-151.09 65.43,-33.89 97.9,-40.95 147.32,-64.01 59.31,-27.77 65.89,-51.3 146.85,-64.48 62.6,-9.89 136.03,-7.06 200.04,-1.88 68.72,5.65 117.2,7.53 168.03,42.36 18.83,13.18 43.3,32.48 64.01,43.3 20.71,11.3 58.37,14.59 82.84,20.71 48.95,12.24 106.37,39.07 154.38,56.95 120.96,46.13 57.42,60.72 69.19,125.2 8.47,47.07 3.3,49.42 -8.94,92.25 -10.83,38.13 -8.47,47.07 -39.07,64.95 -47.07,27.3 -116.26,35.3 -143.09,44.71 -18.83,6.59 -8.47,-0.47 -13.18,10.83 19.3,6.59 114.37,-24.48 137.44,-34.36 62.6,-25.89 54.6,-37.19 73.9,-101.2 9.41,-32.01 10.35,-43.3 4.24,-75.78 -6.12,-34.36 10.83,-56.95 3.76,-82.37 -9.41,-34.36 -72.96,-51.3 -110.14,-65.89 -41.42,-16 -85.67,-36.71 -128.96,-46.13 -74.37,-16 -71.07,-15.06 -124.26,-51.3 -48.95,-33.89 -55.07,-39.54 -126.61,-48.48 -51.3,-6.59 -110.61,-12.24 -163.33,-12.24 -184.04,0 -155.32,36.24 -302.65,91.78 -50.36,18.83 -295.59,145.44 -337.48,172.74 -67.78,44.24 -143.56,133.67 -185.45,200.98 -31.54,50.36 -63.07,110.14 -75.31,179.8 -14.12,81.43 6.12,148.74 44.71,202.39 29.65,40.95 84.72,86.61 142.15,112.96 8.94,-2.82 24.94,-12.71 30.59,-21.65 7.06,-10.83 1.41,-18.83 -0.94,-34.36 8.94,-5.18 1.41,5.18 18.36,-7.53 8.94,-6.59 11.3,-9.41 21.18,-15.06l-2.82 -31.54c0.94,0.94 1.88,1.88 2.35,2.82 0.47,0.94 1.88,1.88 2.35,2.82 26.83,34.83 75.31,169.91 187.8,193.92 44.71,-43.3 14.59,-37.65 6.59,-83.78 4.24,16.94 21.65,34.36 41.89,38.13 11.3,-12.71 25.89,-19.3 24.94,-37.65 -0.94,-23.06 -4.71,-40.01 0.47,-64.01 4.71,33.89 9.41,60.72 9.89,97.43 0.47,72.48 -15.53,29.18 15.53,83.31 55.07,0 108.73,-46.6 132.73,-70.13 24.94,-24.48 68.72,-81.9 89.9,-112.96 53.19,-77.66 31.54,-76.25 69.66,-85.67 93.67,-22.59 216.04,-41.89 308.76,-5.18 99.78,39.54 29.65,62.6 102.14,100.72 88.49,47.07 197.69,-22.59 191.09,-80.48 -1.41,-13.65 -22.59,-46.6 -29.65,-69.19 -9.41,-30.12 -4.24,-62.6 -25.42,-74.84 2.82,24.94 9.89,61.66 16.94,83.31 7.06,22.12 28.71,53.66 27.3,70.6 -3.76,36.24 -66.37,78.13 -121.91,74.84 -99.31,-6.12 -83.31,-70.13 -108.26,-89.9 -92.25,-71.54 -262.64,-47.54 -369.95,-19.77 -18.83,4.71 -20.24,2.82 -28.24,19.3 -37.65,76.25 -157.21,244.28 -246.64,247.11 -24.48,-27.77 -13.18,-25.89 -13.18,-67.31 0,-40.01 -2.35,-112.49 -22.59,-139.32 -30.59,49.89 14.59,108.26 -32.01,126.61 -33.89,-26.83 -41.42,-95.08 -61.19,-145.44 -6.12,118.61 32.01,135.56 32.95,174.62l-15.53 16c-45.66,-7.53 -99.31,-62.6 -118.61,-88.96 -43.77,-58.37 -61.66,-112.02 -76.72,-129.91 -8,16.47 -3.76,40.95 -3.76,59.78l-16.94 14.12c-11.77,-5.65 -15.06,-12.24 -24,-18.83 1.88,56.01 19.77,45.19 -10.35,75.31l1.41 0.93z"/>
    <path class="fil0" d="M549.29 174.78c-10.35,101.2 188.27,164.27 218.39,131.32 24.94,-27.77 -41.42,-11.3 -144.5,-79.07 -15.53,-10.35 -38.13,-22.12 -40.48,-38.59 27.77,-12.24 126.61,7.06 170.86,0 42.83,-7.06 122.85,-15.53 132.73,-56.95 -24,-3.3 -130.38,17.41 -163.8,22.59 -56.48,8.94 -119.55,12.24 -173.21,20.71z"/>
    <path class="fil0" d="M781.33 643.1c60.72,-11.77 96.02,-101.2 163.8,-163.33 43.3,-39.07 131.79,-136.5 141.2,-187.33 -16,-0.47 -36.71,20.24 -48.48,29.65 -51.3,40.01 -86.13,69.66 -128.02,119.08 -57.89,67.78 -29.65,77.19 -96.96,150.15 -13.65,15.06 -25.42,29.65 -32.01,51.78l0.47 0z"/>
    <path class="fil0" d="M1083.51 176.66c1.88,-1.88 -2.82,-8 22.12,-6.12 40.95,3.3 49.42,6.59 85.67,18.83 -15.06,8 -39.54,7.06 -59.31,6.12 -19.3,-0.94 -39.07,-3.76 -48.48,-19.3l0 0.47zm-72.01 -7.53l64.48 0.94c6.59,12.24 -8,10.35 12.71,21.65 28.24,15.06 90.84,15.06 118.61,1.41 -4.24,-21.65 -26.83,-31.54 -49.89,-41.89 -20.24,-8.94 -46.6,-18.36 -70.13,-25.89 -16.94,-5.18 -64.48,-17.89 -83.31,-12.71 -32.48,8.94 0.47,45.66 7.06,56.95l0.47 -0.47z"/>
    <path class="fil3" d="M620.83 199.72c10.35,16.47 32.95,29.65 53.19,40.48 106.84,57.42 167.56,-2.82 167.09,-51.78 -19.3,0 -32.95,10.83 -50.83,16.94 -56.48,19.3 -116.73,3.3 -169.44,-5.65l0 0z"/>
    <path class="fil0" d="M882.53 327.75c-18.83,21.65 -90.84,45.19 -93.19,72.02 45.66,17.41 126.14,-47.54 155.32,-75.31l39.54 -36.24c3.3,-23.06 2.82,-8 -4.24,-12.71 -31.54,8.47 -66.83,40.01 -97.9,52.24l0.47 0z"/>
    <path class="fil0" d="M620.83 199.72c52.72,8.94 112.96,24.94 169.44,5.65 17.89,-6.12 31.54,-16.94 50.83,-16.94 0.47,48.95 -60.25,109.2 -167.09,51.78 -20.24,-10.83 -42.83,-24 -53.19,-40.48l-0 0zm-13.65 -6.59c9.41,36.24 189.21,132.26 237.69,41.89 6.59,-12.71 22.59,-58.37 -1.88,-57.42 -3.3,0 -59.31,16.94 -67.78,19.3 -61.66,14.12 -117.67,-14.12 -168.03,-3.76l0 -0z"/>
    <path class="fil3" d="M1375.8 698.65c-57.42,-25.89 -240.05,18.83 -126.14,-113.43 6.59,-8 19.3,-23.54 26.83,-28.71 14.12,-9.41 28.71,-4.71 41.89,-12.71 -7.06,-9.41 0.47,-7.53 -16,-6.12 -36.24,3.3 -34.83,13.65 -57.42,35.77 -120.96,119.55 24.48,126.61 106.84,132.26 18.36,1.41 16.47,4.71 23.54,-6.59l0.47 -0.47z"/>
    <path class="fil0" d="M950.78 729.24c16.47,0 47.54,-40.95 56.95,-59.31 10.83,-20.71 32.01,-65.43 33.42,-91.31 -17.89,9.89 -38.59,51.78 -49.89,71.07 -10.35,17.41 -37.19,60.72 -40.48,79.54l0 0z"/>
    <path class="fil0" d="M1048.21 708.53c32.48,-16.94 55.54,-79.54 52.24,-129.91 -15.53,8 -24.48,35.3 -34.83,57.89 -4.71,10.83 -9.41,22.59 -13.65,34.36 -5.65,15.53 -10.35,24.94 -4.24,37.65l0.47 0z"/>
    <path class="fil3" d="M1105.63 170.54c-24.94,-1.88 -20.24,4.24 -22.12,6.12 9.41,15.06 28.71,17.89 48.48,19.3 19.77,0.94 44.71,1.88 59.31,-6.12 -36.24,-12.24 -44.71,-15.53 -85.67,-18.83l0 -0.47z"/>
    <path class="fil3" d="M1317.91 487.31c-1.88,5.18 -3.3,4.24 -3.3,11.77 0,11.77 19.3,48.95 26.36,53.66l4.24 -59.78 -27.77 -6.12 0.47 0.47z"/>
   </g>
  </g>
 </g>
</svg>
